<?xml version="1.0" encoding="utf-8"?>
<!-- Generator: Adobe Illustrator 19.0.0, SVG Export Plug-In . SVG Version: 6.00 Build 0)  -->
<svg version="1.1" id="Layer_1" xmlns="http://www.w3.org/2000/svg" xmlns:xlink="http://www.w3.org/1999/xlink" x="0px" y="0px"
	 viewBox="0 0 530.6 317" style="enable-background:new 0 0 530.6 317;" xml:space="preserve">
<path id="XMLID_25_" d="M521.4,144.6c-3.9-4.8-9.2-8.1-14.6-10.8c-46.1-23.6-100.1-17.9-150.7-26.4c-10.6-1.8-21.3-4.3-30.3-10.2
	c-10.5-6.9-17.9-17.8-26.7-26.9c-20.9-21.8-49.3-33.6-77.4-42.9C187.9,16.2,153.3,8.1,118.3,2.7C98-0.5,76.6-2.5,57.9,6.3
	s-32.7,32-25.3,52.1c2.1,5.8,5.5,12.8,4.9,18.2c-23.1,10.9-40.7,37-37,63.9c4.3,31.9,31.3,54.7,58.2,69.7
	c41.8,23.4,88.8,36.4,136.1,37.7c30.8,0.9,66-1.5,87.7,21.7c6.9,7.4,11.6,16.8,18.4,24.3c16.1,17.8,41.3,22.5,64.6,22.9
	c41.5,0.7,84.2-9.8,117-36.6c32.8-26.8,53.7-71.6,46.8-114.8C528.1,158,526,150.4,521.4,144.6z"/>
</svg>
