<?xml version="1.0" encoding="utf-8"?>
<!-- Generator: Adobe Illustrator 19.0.0, SVG Export Plug-In . SVG Version: 6.00 Build 0)  -->
<svg version="1.1" id="Layer_1" xmlns="http://www.w3.org/2000/svg" xmlns:xlink="http://www.w3.org/1999/xlink" x="0px" y="0px"
	 viewBox="0 0 461 181.2" style="enable-background:new 0 0 461 181.2;" xml:space="preserve">
<g id="XMLID_19_">
	<path id="XMLID_9_" d="M446.5,53.8c-38.9-17-83.6-14.5-125.4-6.8c-5.5,1-11.3,2.1-16.7,0.5c-6.3-1.8-11-7-15.9-11.4
		c-30.7-28.1-75.5-32.6-117-35.6C156.1-0.6,138.5-1,127.5,10c-4.3,4.3-8.1,10.5-14.2,10.3c-3.3-0.1-6.2-2.3-9-4
		c-19-11.6-47.1-3.7-57.4,16c-3.3,1.4-6.5,3.2-9.6,5.1C24.5,45.8,14.8,58.3,8,72c-7.7,15.6-11.7,34.7-3.4,50
		c8.8,16,28.8,22.7,47.1,23c18.3,0.3,36.4-4.3,54.7-4.3c6.3,0,12.9,0.6,18.2,4c7,4.4,10.4,12.7,15.7,19.1
		c8.6,10.4,22.1,15.6,35.5,17c50.7,5.4,94.8-36.3,145.5-42.3c22.5-2.6,45.2,1.9,67.8,1.6s47.3-7.2,59.7-26.1
		c6.2-9.5,8.6-21,10.8-32.2c1.2-6.1,2.3-12.8-0.7-18.3C456.5,58.6,451.4,55.9,446.5,53.8z"/>
</g>
</svg>
