<?xml version="1.0" encoding="utf-8"?>
<!-- Generator: Adobe Illustrator 19.0.0, SVG Export Plug-In . SVG Version: 6.00 Build 0)  -->
<svg version="1.1" id="Layer_1" xmlns="http://www.w3.org/2000/svg" xmlns:xlink="http://www.w3.org/1999/xlink" x="0px" y="0px"
	 viewBox="128 -90.1 600 679.9" style="enable-background:new 128 -90.1 600 679.9;" xml:space="preserve">
<style type="text/css">
	.st0{fill:#231F20;}
</style>
<g id="XMLID_1_">
	<path id="XMLID_10_" class="st0" d="M694.8,121.6c-35.6-29.6-70.3-2.7-104.1,25.8c-22.6,19-94.2,78.9-106.4,18.9v-0.1l-0.4-6.2
		c-2.9-70.8,19-162.4-39-217.9c-50.4-48.3-98.9-37.2-155.2-0.3c-0.2,0.1-20.4,12-24.3,15.3l-6.7,5l-8.8,5.8l-6,4.5
		c-0.2,0.4-6,4.2-6.2,4.3C195.3,5.5,146.4,49,131,98.9c-20.4,66.3,68.8,46.5,110,62.1c56.9,21.7-43.8,81.2-57.5,137.6
		c-15.4,63.5,35.2,97.4,93.2,84.5c50.5-11.2,127.5-74.3,179.8-62c43.2,10.1-54.1,130.3-64.4,160.1c-9.4,27-15.3,49.8,3.3,71.2
		c15.5,17.9,61.4,30.7,83.7,35c60.9,11.9,104-20.8,140-66.2c52.3-65.8,115.8-196.1,108.4-324.7C725.9,172,723.6,145.6,694.8,121.6z"
		/>
</g>
</svg>
